<?xml version="1.0" encoding="utf-8"?>
<!-- Generator: Adobe Illustrator 24.0.1, SVG Export Plug-In . SVG Version: 6.00 Build 0)  -->
<svg version="1.1" id="Layer_1" xmlns="http://www.w3.org/2000/svg" xmlns:xlink="http://www.w3.org/1999/xlink" x="0px" y="0px"
	 viewBox="0 0 269.2 173.17" style="enable-background:new 0 0 269.2 173.17;" xml:space="preserve">
<style type="text/css">
	.st0{fill:#12281A;}
	.st1{fill:#75C697;}
</style>
<g>
</g>
<g>
	<path class="st0" d="M119.59,128.45c3.16-3.16,6.32-6.32,9.48-9.48c-19.35-19.35-52.45-5.65-52.45,21.72
		c0,27.37,33.09,41.08,52.45,21.72c-3.16-3.16-6.32-6.32-9.48-9.48c-10.91,10.91-29.55,3.18-29.55-12.24
		C90.03,125.27,108.68,117.54,119.59,128.45z"/>
	<path class="st0" d="M179.96,145.52c0,7.86-6.38,14.24-14.24,14.24c-7.86,0-14.24-6.38-14.24-14.24c0-11.26,0-22.51,0-33.77
		c-4.47,0-8.94,0-13.41,0c0,11.26,0,22.51,0,33.77c0,15.27,12.38,27.65,27.65,27.65c15.27,0,27.65-12.38,27.65-27.65
		c0-11.26,0-22.51,0-33.77c-4.47,0-8.94,0-13.41,0C179.96,123.01,179.96,134.26,179.96,145.52z"/>
	<path class="st0" d="M40.38,59.46c0,0.91-0.08,1.8-0.22,2.67c-0.02,0.16-0.05,0.32-0.07,0.48c-0.81,4.38-3.27,8.23-6.78,10.81
		c-0.05,0.04-0.1,0.07-0.15,0.11c-0.31,0.22-0.63,0.43-0.96,0.63c-0.24,0.15-0.49,0.29-0.73,0.42c-0.19,0.1-0.37,0.21-0.56,0.3
		c-0.24,0.12-0.48,0.23-0.73,0.34c-0.16,0.07-0.32,0.14-0.48,0.21c-0.23,0.1-0.47,0.19-0.7,0.28c-0.26,0.09-0.52,0.18-0.78,0.26
		c-0.14,0.05-0.28,0.1-0.43,0.14c-0.47,0.13-0.94,0.25-1.43,0.34c-0.01,0-0.01,0-0.02,0.01c-5.26,1.05-11.03-0.28-15.51-4.76
		c-3.16,3.16-6.32,6.32-9.48,9.48c8.65,8.65,20.05,10.68,30.01,7.85c0.14-0.04,0.28-0.07,0.43-0.11c0.02-0.01,0.04-0.02,0.07-0.02
		c0.73-0.22,1.46-0.47,2.17-0.74c0.34-0.13,0.67-0.28,1.01-0.42c0.37-0.16,0.74-0.31,1.1-0.48c0.34-0.16,0.67-0.33,1-0.5
		c0.38-0.2,0.76-0.4,1.14-0.61c0.25-0.14,0.5-0.29,0.74-0.44c0.53-0.32,1.05-0.66,1.57-1.01c0.07-0.05,0.14-0.09,0.21-0.14
		c6.41-4.47,11.19-11.37,12.56-19.97c0.01-0.05,0.02-0.11,0.03-0.16c0.08-0.52,0.14-1.05,0.2-1.58c0.04-0.39,0.09-0.77,0.12-1.16
		c0-0.04,0.01-0.07,0.01-0.11H53.7c0.05-0.7,0.09-1.4,0.09-2.1c0-19.44,0-38.87,0-58.31c-4.47,0-8.94,0-13.41,0
		C40.38,20.59,40.38,40.02,40.38,59.46z"/>
	<path class="st0" d="M103.82,30.07c-13.05-3.87-27.08,1.31-34.5,12.72c-7.41,11.41-6.44,26.33,2.4,36.68
		c8.3,9.72,21.67,13.22,33.56,9.03V73.51c-5.7,4.16-13.5,4.49-19.6,0.55c-6.96-4.5-9.76-13.31-6.66-21
		c3.1-7.69,11.21-12.11,19.35-10.53c8.14,1.58,14.02,8.7,14.02,17c0,3.63,0,7.25,0,10.88c0,6.61,0,13.23,0,19.84
		c4.47,0,8.94,0,13.41,0c0-10.24,0-20.48,0-30.72C125.81,45.92,116.86,33.93,103.82,30.07z"/>
	<path class="st0" d="M183.03,59.52c0,8.29-5.88,15.42-14.02,16.99c-8.14,1.58-16.26-2.84-19.35-10.53c-3.1-7.69-0.3-16.5,6.66-21
		c6.08-3.93,13.86-3.62,19.55,0.52V30.52c-11.88-4.17-25.22-0.66-33.51,9.04c-8.84,10.34-9.82,25.27-2.41,36.68
		c7.41,11.41,21.44,16.59,34.48,12.73c13.05-3.86,22.01-15.85,22.01-29.46c0-19.44,0-38.87,0-58.31c-4.47,0-8.94,0-13.41,0
		C183.03,20.65,183.03,40.08,183.03,59.52z"/>
	<path class="st0" d="M260.87,97.03c-7.41-11.41-21.44-16.59-34.48-12.73c-13.05,3.86-22.01,15.85-22.01,29.46
		c0,19.35,0,38.7,0,58.05c4.47,0,8.94,0,13.41,0c0-19.35,0-38.7,0-58.05c0-8.29,5.88-15.42,14.02-17
		c8.14-1.58,16.26,2.84,19.35,10.53c3.1,7.69,0.3,16.5-6.66,21c-6.08,3.93-13.85,3.61-19.55-0.51c0,4.99,0,9.98,0,14.97
		c11.88,4.16,25.22,0.66,33.51-9.04C267.3,123.37,268.28,108.44,260.87,97.03z"/>
	<path class="st1" d="M265.95,4.53c-0.02-0.02-0.09-0.03-0.1-0.02c-0.17,0.15-0.35,0.01-0.52,0.03c-0.1,0.01-0.19,0.11-0.31,0.04
		c-0.15-0.09-0.27,0.04-0.41,0.04c-0.14,0-0.13-0.17-0.21-0.22c-0.13-0.07-0.28-0.09-0.44-0.14c-0.97,0.52-1.95,1.03-2.93,1.57
		c-0.19,0.1-0.34,0.1-0.51,0.02c-0.1,0.05-0.2,0.11-0.3,0.16c-0.33,0.17-0.65,0.36-0.98,0.52c-0.12,0.06-0.22,0.18-0.4,0.14
		c-0.24-0.06-0.24-0.04-0.41,0.05c-0.26,0.14-0.52,0.28-0.79,0.42c-0.23,0.12-0.46,0.24-0.69,0.37c-0.07,0.04-0.13,0.04-0.21,0.01
		c-0.1-0.04-0.2-0.05-0.31,0.01c-1.08,0.58-2.16,1.15-3.24,1.73c-0.15,0.08-0.27,0.07-0.41,0.02c-0.02-0.01-0.07,0.02-0.07,0.03
		c-0.03,0.21-0.17,0.3-0.34,0.39c-1.67,0.89-3.34,1.78-5.01,2.67c-0.07,0.03-0.13,0.07-0.2,0.1c-0.03,0.01-0.07,0-0.1,0
		c-0.27,0.05-0.27,0.06-0.33,0.23c-1.8,0.96-3.6,1.92-5.4,2.87c-0.12,0.06-0.12,0.17-0.17,0.26c-0.07,0.15-0.36,0.3-0.54,0.27
		c-0.18-0.03-0.17-0.03-0.22,0.08c-0.03,0.06-0.05,0.15-0.1,0.18c-0.52,0.29-1.05,0.56-1.57,0.84c-0.06,0.03-0.15,0.08-0.16,0.13
		c-0.09,0.39-0.47,0.43-0.74,0.59c-0.38,0.23-0.78,0.42-1.18,0.64c-0.06,0.03-0.15,0.09-0.15,0.14c-0.03,0.28-0.27,0.33-0.45,0.43
		c-0.69,0.37-1.37,0.74-2.07,1.1c-0.16,0.08-0.15,0.23-0.21,0.37c-0.06,0.03-0.12,0.07-0.19,0.1c-0.26,0.14-0.51,0.33-0.79,0.4
		c-0.31,0.08-0.17,0.51-0.5,0.53c-0.26,0.14-0.52,0.28-0.78,0.42c-0.06,0.13-0.05,0.28-0.22,0.36c-0.3,0.14-0.59,0.31-0.89,0.47
		c-0.06,0.03-0.17,0.07-0.17,0.12c-0.03,0.27-0.23,0.35-0.43,0.45c-0.2,0.1-0.39,0.21-0.59,0.31c-0.03,0.02-0.06,0.05-0.07,0.08
		c-0.12,0.48-0.63,0.45-0.93,0.7c-0.05,0.04-0.14,0.09-0.15,0.14c-0.03,0.28-0.27,0.32-0.45,0.43c-0.16,0.09-0.32,0.19-0.49,0.26
		c-0.17,0.07-0.15,0.24-0.21,0.37c-0.29,0.15-0.58,0.31-0.88,0.46c-0.08,0.04-0.12,0.08-0.14,0.16c-0.02,0.1-0.04,0.21-0.17,0.26
		c-0.17,0.07-0.32,0.2-0.5,0.25c-0.26,0.07-0.18,0.38-0.4,0.48c-0.23,0.11-0.45,0.25-0.67,0.38c-0.02,0.01-0.03,0.07-0.03,0.1
		c-0.02,0.11-0.09,0.19-0.19,0.24c-0.09,0.05-0.18,0.12-0.27,0.18c-0.01,0.28-0.25,0.33-0.43,0.44c-0.09,0.05-0.24,0.08-0.25,0.19
		c-0.01,0.25-0.33,0.29-0.34,0.53c0,0.09-0.05,0.13-0.13,0.16c-0.17,0.08-0.33,0.17-0.5,0.26c-0.08,0.27-0.17,0.56-0.26,0.84
		c-0.02,0.08-0.17,0.18-0.26,0.14c-0.24-0.11-0.31,0.02-0.34,0.21c-0.13,0.07-0.25,0.15-0.26,0.32c-0.01,0.09-0.05,0.13-0.13,0.16
		c-0.14,0.06-0.26,0.14-0.4,0.2c-0.08,0.03-0.13,0.07-0.13,0.16c-0.01,0.17-0.13,0.24-0.26,0.32c-0.01,0.26-0.21,0.36-0.42,0.46
		c-0.03,0.01-0.07,0.05-0.07,0.07c0,0.25-0.29,0.31-0.33,0.53c-0.02,0.12-0.11,0.18-0.21,0.23c-0.14,0.06-0.24,0.14-0.29,0.3
		c-0.06,0.2-0.04,0.46-0.32,0.53c-0.04,0.1-0.05,0.22-0.12,0.3c-0.06,0.08-0.19,0.09-0.21,0.23c-0.02,0.11-0.07,0.2-0.19,0.25
		c-0.18,0.07-0.3,0.18-0.34,0.39c-0.04,0.17-0.05,0.37-0.27,0.44c-0.09,0.14-0.09,0.35-0.3,0.42c-0.04,0.01-0.05,0.13-0.08,0.2
		c-0.01,0.03-0.02,0.09-0.04,0.1c-0.22,0.06-0.25,0.25-0.29,0.43c-0.04,0.19-0.15,0.32-0.3,0.42c-0.01,0.2-0.2,0.28-0.29,0.43
		c-0.13,0.21-0.06,0.52-0.36,0.63c-0.05,0.14-0.09,0.28-0.14,0.42c-0.03,0.1-0.06,0.2-0.18,0.25c-0.15,0.07-0.12,0.25-0.18,0.38
		c-0.11,0.22-0.04,0.53-0.34,0.65c-0.07,0.21-0.18,0.41-0.21,0.62c-0.03,0.24-0.27,0.33-0.34,0.53c-0.05,0.14-0.09,0.28-0.13,0.42
		c-0.06,0.17-0.06,0.37-0.28,0.43c-0.06,0.17-0.12,0.34-0.18,0.52c-0.06,0.18-0.1,0.35-0.17,0.53c-0.06,0.17-0.04,0.39-0.21,0.49
		c-0.19,0.11-0.19,0.3-0.25,0.46c-0.22,0.67-0.42,1.34-0.63,2c-0.11,0.35-0.22,0.7-0.32,1.06c-0.01,0.03,0.04,0.06,0.05,0.1
		c0.04,0.2-0.02,0.46-0.18,0.57c-0.1,0.07-0.15,0.14-0.13,0.26c0.01,0.07,0.07,0.14,0.06,0.2c-0.05,0.21-0.14,0.42-0.19,0.64
		c-0.06,0.24-0.25,0.47-0.07,0.72c-0.15,0.49-0.31,0.98-0.46,1.48c-0.01,0.05,0.07,0.13,0.09,0.19c0.01,0.03-0.02,0.07-0.03,0.1
		c-0.07,0.34-0.32,0.66-0.16,1.04c-0.03,0.24-0.26,0.46-0.08,0.72c-0.04,0.14-0.08,0.28-0.12,0.42c-0.04,0.14-0.09,0.28-0.13,0.42
		c-0.04,0.14,0.13,0.25,0.04,0.41c-0.03,0.06-0.03,0.14-0.02,0.2c0.01,0.07,0.07,0.14,0.05,0.2c-0.04,0.18-0.1,0.35-0.16,0.53
		c0.12,0.17,0.08,0.34,0,0.51c-0.07,0.17-0.11,0.34,0,0.51c-0.09,0.17-0.07,0.34,0,0.51c-0.15,0.2,0.05,0.41-0.03,0.62
		c-0.07,0.2,0.12,0.41-0.03,0.61c0.02,0.1,0.11,0.17,0.07,0.3c-0.06,0.23-0.05,0.23,0.04,0.4c0.08,0.15,0.09,0.15,0.03,0.4
		c-0.03,0.12,0.1,0.22,0.07,0.3c-0.12,0.24-0.02,0.42,0.09,0.61c0.02,0.03,0.03,0.08,0.02,0.1c-0.14,0.23,0,0.41,0.1,0.61
		c0.01,0.03,0.02,0.07,0.01,0.1c-0.05,0.14-0.07,0.27,0.01,0.41c0.22,0.38,0.45,0.76,0.61,1.17c0.1,0.24,0.37,0.21,0.47,0.39
		c0.04,0.07,0.08,0.12,0.15,0.14c0.1,0.03,0.22,0.03,0.26,0.16c0.04,0.1,0.1,0.2,0.15,0.29c0.07,0.12,0.06,0.13,0.32,0.25
		c0.07,0.03,0.12,0.07,0.15,0.15c0.07,0.17,0.17,0.31,0.38,0.35c0.08,0.02,0.13,0.16,0.21,0.21c0.09,0.06,0.24,0.03,0.28,0.14
		c0.08,0.23,0.42,0.14,0.47,0.39c0.14,0.05,0.27,0.1,0.41,0.14c0.07,0.02,0.14,0.05,0.22,0.07c0.13,0.25,0.27,0.51,0.41,0.77
		c0.01,0.02,0.07,0.04,0.1,0.03c0.1-0.02,0.21-0.08,0.3-0.06c0.25,0.05,0.49,0.16,0.74,0.21c0.28,0.06,0.52,0.23,0.84,0.14
		c0.25-0.06,0.49,0.1,0.73,0.17c0.28,0.08,0.57,0.17,0.85,0.25c0.1,0.03,0.21,0.11,0.31,0.05c0.15-0.09,0.28-0.03,0.42,0.01
		c0.17,0.05,0.34,0.15,0.52,0c0.17,0.04,0.35,0.13,0.51-0.02c0.17,0.07,0.34,0.1,0.51-0.01c0.23,0.14,0.42,0.02,0.61-0.09
		c0.03-0.02,0.08-0.03,0.1-0.02c0.2,0.14,0.42-0.07,0.62,0.02c0.08,0.03,0.14,0.04,0.21,0c0.13-0.07,0.27-0.13,0.39-0.21
		c0.07-0.04,0.14-0.08,0.2-0.04c0.19,0.11,0.35,0.01,0.51-0.09c0.07-0.05,0.13-0.05,0.21-0.03c0.23,0.05,0.24,0.04,0.41-0.04
		c0.14-0.07,0.14-0.08,0.41-0.03c0.12,0.02,0.21-0.1,0.3-0.07c0.18,0.07,0.34,0.01,0.52-0.01c0.14-0.01,0.29,0.06,0.42,0.12
		c0.18,0.08,0.34-0.14,0.52-0.01c0.03,0.02,0.07,0.03,0.1,0.03c0.03,0,0.07-0.03,0.1-0.04c0.03-0.02,0.07-0.03,0.1-0.05
		c0.13-0.09,0.26-0.11,0.41-0.05c0.17,0.06,0.34-0.15,0.51-0.01c0.02,0.02,0.07,0.02,0.1,0.01c0.07-0.03,0.13-0.07,0.2-0.1
		c0.06-0.03,0.15-0.1,0.19-0.08c0.24,0.12,0.42,0.01,0.61-0.11c0.03-0.02,0.07-0.04,0.1-0.05c0.19-0.1,0.38-0.25,0.61-0.11
		c0.2-0.09,0.4-0.17,0.59-0.28c0.17-0.11,0.33-0.1,0.52-0.05c0.09,0.03,0.18-0.09,0.3-0.07c0.27,0.05,0.27,0.04,0.41-0.03
		c0.18-0.09,0.18-0.09,0.41-0.05c0.04,0.01,0.08,0.03,0.1,0.02c0.18-0.11,0.43-0.14,0.46-0.42c0.01-0.12,0.14-0.17,0.24-0.17
		c0.14,0.01,0.27,0.1,0.42,0c0.1-0.06,0.21,0.04,0.31,0.04c0.14,0,0.26-0.12,0.41-0.04c0.09,0.06,0.14,0.04,0.16-0.04
		c0.02-0.07,0.04-0.14,0.07-0.23c0.14,0.05,0.28,0.09,0.42,0.14c0.04,0.01,0.07,0.02,0.11,0.03c0.07,0.02,0.13,0,0.2-0.04
		c0.09-0.05,0.2-0.09,0.3-0.13c0.28,0.16,0.48-0.05,0.71-0.15c0.13-0.06,0.26-0.22,0.39-0.16c0.35,0.15,0.55-0.14,0.81-0.23
		c0.3-0.11,0.53-0.43,0.9-0.25c0.2-0.1,0.41-0.18,0.59-0.3c0.18-0.12,0.34-0.09,0.51-0.02c0.07-0.04,0.13-0.07,0.2-0.11
		c0.13-0.07,0.26-0.14,0.39-0.21c0.13-0.07,0.26-0.14,0.39-0.21c0.16-0.09,0.32-0.19,0.49-0.26c0.17-0.07,0.1-0.29,0.21-0.36
		c0.45-0.26,0.91-0.49,1.37-0.73c0.11,0.02,0.23,0.1,0.31,0.06c0.27-0.12,0.52-0.28,0.77-0.43c0.02-0.01,0.02-0.07,0.04-0.1
		c0.13-0.26,0.13-0.26,0.4-0.22c0.23,0.03,0.29,0.01,0.36-0.13c0.13-0.26,0.13-0.26,0.25-0.33c0.07-0.03,0.13-0.08,0.2-0.1
		c0.21-0.06,0.27-0.23,0.3-0.41c0.43-0.23,0.85-0.46,1.28-0.68c0.08-0.04,0.12-0.07,0.13-0.16c0.01-0.07,0.04-0.17,0.08-0.18
		c0.06-0.02,0.14,0.04,0.21,0.05c0.02,0.01,0.07,0,0.08-0.01c0.05-0.07,0.03-0.13-0.01-0.2c-0.09-0.2-0.06-0.24,0.14-0.2
		c0.08,0.02,0.14,0.04,0.21,0c0.49-0.26,0.98-0.52,1.47-0.79c0.05-0.03,0.07-0.12,0.09-0.19c0.02-0.08,0.05-0.13,0.12-0.17
		c0.46-0.24,0.92-0.49,1.38-0.73c0.07-0.04,0.11-0.08,0.14-0.15c0.15-0.27,0.15-0.26,0.26-0.32c0.59-0.31,1.18-0.63,1.77-0.94
		c0.03-0.18,0.1-0.34,0.3-0.41c0.1-0.03,0.2-0.08,0.22-0.22c0.02-0.11,0.07-0.19,0.18-0.25c0.56-0.29,1.11-0.59,1.64-0.87
		c0.04-0.14,0.09-0.25,0.11-0.35c0.03-0.21,0.16-0.32,0.34-0.38c0.08-0.03,0.14-0.07,0.15-0.14c0.03-0.15,0.1-0.27,0.25-0.33
		c0.1-0.04,0.19-0.11,0.3-0.15c0.13-0.05,0.15-0.16,0.17-0.26c0.02-0.14,0.17-0.13,0.23-0.21c0.06-0.08,0.06-0.22,0.12-0.3
		c0.07-0.08,0.19-0.11,0.29-0.16c0.07-0.03,0.11-0.09,0.12-0.17c0.02-0.11,0.07-0.2,0.19-0.25c0.14-0.06,0.27-0.13,0.39-0.21
		c0.05-0.04,0.09-0.11,0.11-0.17c0.03-0.12,0.1-0.18,0.2-0.24c0.1-0.05,0.25-0.08,0.25-0.18c0.02-0.28,0.37-0.34,0.38-0.63
		c0-0.18,0.07-0.36,0.29-0.42c0.04-0.1,0.08-0.2,0.11-0.31c0.26-0.05,0.19-0.35,0.4-0.48c0.19-0.11,0.17-0.39,0.24-0.59
		c0.07-0.21,0.13-0.42,0.18-0.62c0.09-0.05,0.16-0.08,0.22-0.12c0.13-0.07,0.14-0.07,0.26-0.32c0.03-0.07,0.07-0.11,0.15-0.15
		c0.17-0.08,0.09-0.34,0.31-0.42c0.11-0.04,0.1-0.18,0.14-0.28c0.06-0.16,0.06-0.36,0.28-0.44c0.05-0.02,0.07-0.12,0.08-0.19
		c0.02-0.14,0.16-0.14,0.22-0.22c0.09-0.1,0.04-0.3,0.21-0.36c0.03-0.01,0.08-0.03,0.09-0.06c0.05-0.14,0.11-0.28,0.13-0.42
		c0.02-0.21,0.29-0.22,0.3-0.42c0.01-0.17,0.22-0.18,0.26-0.32c0.04-0.14,0.09-0.28,0.25-0.33c0.16-0.23,0.07-0.59,0.41-0.73
		c0.07-0.21,0.16-0.42,0.19-0.63c0.03-0.24,0.29-0.31,0.34-0.53c0.05-0.21,0.13-0.42,0.19-0.63c0.01-0.03,0.02-0.07,0.04-0.1
		c0.02-0.03,0.06-0.04,0.1-0.05c0.19-0.08,0.09-0.36,0.31-0.41c0.03-0.01,0.07-0.04,0.08-0.07c0.06-0.17,0.11-0.35,0.17-0.53
		c0.05-0.18,0.1-0.36,0.17-0.53c0.07-0.16,0.04-0.36,0.24-0.47c0.19-0.1,0.15-0.32,0.22-0.48c0.07-0.17,0.11-0.35,0.17-0.53
		c0.1-0.32,0.2-0.63,0.3-0.95c0.02-0.07,0.04-0.16,0.09-0.19c0.29-0.14,0.22-0.44,0.34-0.66c0.08-0.15-0.01-0.27-0.03-0.41
		c-0.02-0.08,0.04-0.14,0.12-0.16c0.13-0.04,0.16-0.14,0.13-0.25c-0.01-0.07-0.06-0.13-0.06-0.2c0-0.14,0.14-0.15,0.23-0.21
		c0.19-0.6,0.37-1.19,0.56-1.79c0.01-0.04,0.04-0.07,0.03-0.1c-0.01-0.07-0.05-0.13-0.07-0.2c-0.01-0.03-0.01-0.07,0-0.1
		c0.09-0.28,0.18-0.56,0.26-0.85c0.08-0.31,0.3-0.62,0.23-0.94c-0.07-0.32,0.12-0.56,0.17-0.83c0.03-0.18,0.09-0.36,0.17-0.53
		c0.09-0.18-0.01-0.34,0-0.51c0.01-0.24,0.25-0.46,0.07-0.72c0.07-0.25,0.15-0.49,0.22-0.74c0.04-0.14,0.1-0.28,0.13-0.42
		c0.01-0.06-0.05-0.13-0.06-0.2c-0.03-0.17,0.14-0.35-0.02-0.51c0.03-0.1,0.05-0.21,0.08-0.31c0.03-0.11,0.06-0.21,0.09-0.32
		c-0.18-0.26,0.03-0.48,0.07-0.72c0.01-0.03,0.01-0.08,0-0.1c-0.1-0.14-0.04-0.27,0-0.41c0.03-0.14,0.16-0.27,0.07-0.41
		c-0.09-0.15,0-0.28,0.03-0.41c-0.14-0.17-0.07-0.34,0-0.51c0.07-0.17,0.09-0.34-0.01-0.51c0.1-0.17,0.02-0.34,0.01-0.51
		c-0.01-0.14,0.08-0.28,0.12-0.42c0.01-0.04,0.04-0.08,0.03-0.1c-0.1-0.17-0.08-0.34,0-0.51c0.07-0.17,0.13-0.34,0-0.51
		c0.08-0.17,0.09-0.34,0-0.51c0.1-0.17,0.03-0.34,0-0.51c-0.01-0.1,0.04-0.22,0.09-0.31c0.1-0.19,0.03-0.35-0.08-0.5
		c-0.05-0.07-0.06-0.13-0.04-0.2c0.05-0.14,0.09-0.28,0.13-0.42c0.05-0.17-0.14-0.33-0.01-0.51c0.04-0.06,0.01-0.13-0.04-0.2
		c-0.04-0.06-0.03-0.13,0-0.2c0.05-0.1,0.03-0.2-0.02-0.31c-0.03-0.05,0.01-0.13,0.02-0.2c0.01-0.07,0.03-0.15,0.01-0.2
		c-0.1-0.19-0.21-0.37-0.09-0.61c0.04-0.08-0.09-0.17-0.07-0.3c0.06-0.25,0.05-0.25-0.03-0.4c-0.02-0.03-0.03-0.07-0.05-0.1
		c-0.06-0.06-0.06-0.13-0.02-0.2c0.08-0.14,0-0.27-0.03-0.41c-0.02-0.13,0.11-0.26,0.01-0.41c-0.09-0.13,0.09-0.27,0.03-0.41
		c-0.06-0.13-0.13-0.26-0.21-0.39c-0.06-0.1-0.08-0.2-0.03-0.3c0.04-0.07,0.05-0.14,0.01-0.21c-0.12-0.19-0.21-0.37-0.09-0.61
		c0.04-0.07-0.1-0.17-0.07-0.3c0.06-0.24,0.05-0.25-0.03-0.4c-0.07-0.13-0.14-0.26-0.21-0.39c0.16-0.27,0.01-0.49-0.13-0.7
		c-0.09-0.14-0.07-0.26-0.02-0.41c0.05-0.14-0.12-0.25-0.04-0.41c0.11-0.2-0.06-0.34-0.13-0.5c-0.04-0.1-0.15-0.2-0.1-0.29
		c0.1-0.19-0.02-0.34-0.01-0.51c0.03-0.31,0.03-0.31-0.03-0.41c-0.11-0.19-0.21-0.39-0.31-0.58c-0.01-0.02,0.01-0.07,0.02-0.1
		c0.02-0.29,0.02-0.29-0.04-0.4c-0.08-0.15-0.09-0.15-0.03-0.4c0.03-0.12-0.07-0.2-0.07-0.3c0-0.1,0.06-0.21,0.06-0.31
		c0-0.06-0.07-0.16-0.12-0.16C266.17,4.8,266.07,4.65,265.95,4.53z M216.21,65.79c-0.03-0.01-0.07-0.02-0.1-0.03
		c-0.1-0.03-0.21-0.05-0.3-0.09c-0.05-0.02-0.05-0.1,0.01-0.16c0.17-0.15,0.33-0.12,0.41,0.08
		C216.22,65.65,216.21,65.72,216.21,65.79z M211.97,55.75c-0.03,0.11-0.06,0.21-0.1,0.32c0.01,0.1,0.02,0.19,0.03,0.29
		c0.25,0.08,0.29,0.16,0.25,0.37c-0.01,0.04-0.02,0.07-0.03,0.11c-0.01,0.03-0.02,0.07,0,0.1c0.06,0.13,0.14,0.26,0.17,0.39
		c0.02,0.1-0.04,0.21-0.05,0.31c0,0.07,0.06,0.14,0.05,0.2c-0.02,0.13-0.06,0.25-0.11,0.37c-0.09-0.56-0.16-0.97-0.21-1.26
		c0.29,2.61,0.22,2.83,0.14,3.05c0,0.01-0.07,0-0.09-0.02c-0.19-0.17-0.24-0.44-0.4-0.64c-0.14-0.18,0.06-0.36-0.02-0.51
		c-0.08-0.15,0-0.28,0.01-0.41c0.01-0.1-0.09-0.18-0.07-0.3c0.05-0.27,0.04-0.27-0.03-0.4c-0.03-0.06-0.07-0.13-0.1-0.19
		c0.06-0.21,0.11-0.42,0.17-0.63c-0.15-0.17-0.03-0.34,0.02-0.51c0.03-0.1,0.06-0.11,0.23-0.05c-0.04-0.12-0.07-0.12-0.1-0.11
		c-0.01,0-0.03-0.06-0.05-0.09c-0.15-0.17-0.05-0.34-0.01-0.51c0.02-0.1,0.05-0.14,0.12-0.11c0.07,0.02,0.12,0.07,0.14,0.15
		C211.95,55.68,211.98,55.72,211.97,55.75z M211.92,54.34c-0.03,0.04-0.09,0.05-0.16,0c-0.01-0.01,0.01-0.07,0.03-0.1
		c0.03-0.05,0.09-0.05,0.16,0C211.96,54.25,211.93,54.31,211.92,54.34z M214.84,42.87c-0.01,0.02-0.03,0.03-0.04,0.04
		c0.01,0.11,0.03,0.15,0.05,0.19c0.08,0.16,0.05,0.23-0.1,0.32c-0.06,0.03-0.12,0.07-0.18,0.1c0.06,0.16,0.05,0.19-0.08,0.29
		c0.01,0.01,0.03,0.04,0.04,0.1c0,0.03-0.01,0.07-0.03,0.1c-0.04,0.05-0.09,0.09-0.15,0.13c-0.06,0.04-0.14,0.05-0.19-0.01
		c-0.02-0.03,0.01-0.12,0.04-0.16c0.04-0.05,0.12-0.07,0.18-0.1c0.03-0.22,0.04-0.24,0.18-0.35c-0.02-0.03-0.05-0.06-0.04-0.09
		c0.04-0.16,0.09-0.31,0.15-0.46c0.01-0.02,0.05-0.03,0.08-0.05c-0.02-0.01-0.04-0.04-0.04-0.09c0-0.05,0.04-0.1,0.07-0.15
		c0,0.04,0,0.07,0,0.1c0.04-0.1,0.08-0.08,0.08-0.08C214.87,42.76,214.87,42.83,214.84,42.87z M226.53,55.31
		c-0.01,0.01-0.06-0.02-0.1-0.03c-0.04-0.03-0.05-0.09,0-0.16c0.01-0.01,0.07,0.01,0.1,0.03C226.57,55.18,226.58,55.24,226.53,55.31
		z M222.28,35.35c-0.01,0.03-0.02,0.08-0.04,0.09c-0.06,0.04-0.15,0.06-0.18,0.12c-0.1,0.19-0.07,0.47-0.24,0.59
		c-0.18,0.13-0.19,0.3-0.25,0.46c-0.03,0.07-0.04,0.14-0.07,0.21c-0.08,0.27-0.07,0.29-0.2,0.36c-0.16,0.09-0.1,0.29-0.21,0.36
		c-0.14,0.08-0.21,0.18-0.25,0.33c-0.07,0.25-0.16,0.49-0.23,0.74c-0.04,0.15-0.09,0.27-0.25,0.32c-0.04,0.1-0.05,0.23-0.12,0.3
		c-0.07,0.08-0.19,0.11-0.29,0.16c-0.06,0.06-0.13,0.07-0.2,0.02c-0.02-0.01-0.03-0.05-0.02-0.07c0.02-0.07,0.04-0.14,0.06-0.21
		c0.07-0.17,0.05-0.39,0.2-0.49c0.14-0.09,0.14-0.25,0.23-0.34c0.13-0.13,0.25-0.24,0.29-0.43c0.04-0.18,0.07-0.36,0.29-0.43
		c0.02-0.01,0.02-0.07,0.03-0.1c0.08-0.23,0.09-0.5,0.36-0.63c0.05-0.18,0.07-0.38,0.18-0.52c0.11-0.14,0.27-0.24,0.28-0.43
		c0.02-0.31,0.26-0.42,0.5-0.52c0.03-0.01,0.07,0.01,0.1,0.03C222.27,35.29,222.28,35.33,222.28,35.35z M233.93,55.23
		c-0.04,0.14-0.07,0.28-0.13,0.41c-0.04,0.09-0.15,0.14-0.26,0.13c-0.11,0-0.21-0.19-0.17-0.32c0.03-0.1,0.05-0.21,0.1-0.3
		c0.05-0.09,0.15-0.14,0.26-0.13c0.08,0,0.13,0.05,0.15,0.13C233.9,55.17,233.94,55.2,233.93,55.23z M223.22,33.93
		c-0.01,0.01-0.06-0.02-0.1-0.03c-0.04-0.03-0.05-0.09,0-0.16c0.01-0.01,0.07,0.01,0.1,0.03C223.26,33.79,223.26,33.85,223.22,33.93
		z M232.07,26.06c0-0.03,0.01-0.09,0.03-0.1c0.12-0.07,0.25-0.15,0.38-0.2c0.08-0.03,0.14,0.02,0.14,0.08c0,0.03-0.01,0.08-0.03,0.1
		c-0.06,0.04-0.13,0.07-0.19,0.1c-0.06,0.03-0.12,0.09-0.19,0.1C232.13,26.16,232.07,26.12,232.07,26.06z M231.21,34.57
		c0.05-0.21,0.05-0.21,0.26-0.31c0.03-0.02,0.08-0.06,0.09-0.05c0.01,0.01,0.02,0.02,0.02,0.03c0-0.03-0.01-0.03-0.02-0.03
		c-0.07-0.05-0.05-0.12-0.03-0.2c0.07-0.21,0.12-0.42,0.21-0.62c0.02-0.05,0.11-0.1,0.18-0.11c0.06-0.01,0.14,0.02,0.18,0.07
		c0.11,0.11,0.09,0.26-0.05,0.35c-0.07,0.04-0.12,0.07-0.13,0.15c-0.02,0.16-0.1,0.26-0.25,0.3c-0.09,0.27-0.14,0.43-0.18,0.54
		c0,0.01-0.01,0.02-0.01,0.03c0-0.01,0-0.01,0-0.02c-0.05,0.14-0.06,0.18-0.07,0.22c-0.01,0.1-0.05,0.15-0.12,0.1
		c-0.05-0.04-0.1-0.09-0.13-0.15C231.11,34.77,231.19,34.67,231.21,34.57z M249.25,51.85c-0.01,0.03-0.02,0.08-0.04,0.09
		c-0.09,0.06-0.2,0.09-0.22,0.22c-0.02,0.11-0.06,0.21-0.18,0.25c-0.26,0.07-0.33,0.27-0.37,0.49c-0.04,0.21-0.16,0.32-0.34,0.38
		c-0.12,0.04-0.16,0.14-0.19,0.25c-0.01,0.04-0.01,0.09-0.03,0.1c-0.22,0.13-0.44,0.26-0.68,0.37c-0.21,0.1-0.39,0.21-0.4,0.47
		c-0.26,0.14-0.52,0.28-0.79,0.42c-0.11,0.06-0.11,0.05-0.26,0.32c-0.04,0.07-0.07,0.11-0.14,0.15c-0.33,0.17-0.66,0.35-0.98,0.52
		c-0.33,0.17-0.65,0.35-0.98,0.52c-0.12,0.06-0.11,0.18-0.15,0.27c-0.05,0.11-0.15,0.17-0.25,0.16c-0.14-0.01-0.26-0.09-0.42,0
		c-0.29,0.17-0.59,0.31-0.88,0.48c-0.15,0.09-0.27,0.02-0.42,0c-0.1-0.01-0.21,0.04-0.25,0.16c-0.03,0.07-0.03,0.16-0.07,0.2
		c-0.03,0.03-0.13-0.01-0.19-0.03c-0.21-0.07-0.33,0.13-0.5,0.18c-0.03,0.01-0.07-0.01-0.1-0.03c-0.02-0.01-0.03-0.05-0.03-0.07
		c0.01-0.03,0.02-0.08,0.04-0.1c0.09-0.06,0.2-0.09,0.22-0.22c0.01-0.07,0.04-0.16,0.09-0.19c0.19-0.12,0.4-0.2,0.58-0.32
		c0.23-0.15,0.59-0.16,0.64-0.54c0-0.03,0.04-0.06,0.06-0.08c0.62-0.33,1.24-0.67,1.87-0.99c0.05-0.03,0.14,0.01,0.21,0.01
		c0.07,0,0.15,0.03,0.2,0c0.33-0.17,0.68-0.32,0.98-0.53c0.35-0.24,0.89-0.23,1.01-0.76c0.16-0.09,0.32-0.19,0.48-0.27
		c0.07-0.04,0.13-0.07,0.14-0.15c0.02-0.16,0.11-0.26,0.26-0.32c0.02-0.01,0.04-0.07,0.03-0.1c-0.01-0.22,0.26-0.23,0.3-0.42
		c0.03-0.14,0.06-0.3,0.14-0.42c0.1-0.14,0.28-0.23,0.29-0.43c0-0.01,0.06-0.02,0.08-0.01c0.14,0.06,0.28,0.08,0.41-0.03
		c0.44,0,0.44,0,0.71-0.13c0.03-0.01,0.07,0.01,0.1,0.03C249.24,51.79,249.25,51.83,249.25,51.85z M234.74,24.3
		c-0.12,0.08-0.25,0.14-0.38,0.21c-0.06,0.03-0.13,0.08-0.19,0.1c-0.03,0.01-0.07-0.01-0.1-0.03c-0.05-0.03-0.05-0.12,0.01-0.16
		c0.18-0.12,0.38-0.21,0.58-0.31c0.02-0.01,0.07,0.01,0.1,0.03C234.8,24.17,234.8,24.25,234.74,24.3z M249.64,51.63
		c-0.01,0.03-0.02,0.1-0.03,0.1c-0.09,0-0.14-0.04-0.13-0.09c0-0.03,0.02-0.1,0.03-0.1C249.6,51.54,249.64,51.58,249.64,51.63z
		 M236.99,27.25c-0.07-0.04-0.02-0.16,0.11-0.22c0.06-0.03,0.13-0.07,0.19-0.1c0.03-0.02,0.06-0.04,0.1-0.05
		c0.03,0,0.07,0.01,0.1,0.03c0.05,0.03,0.05,0.11-0.01,0.16c-0.08,0.07-0.19,0.11-0.28,0.16C237.13,27.29,237.07,27.3,236.99,27.25z
		 M250.56,50.72c-0.04,0.05-0.12,0.07-0.18,0.1c-0.04,0.14,0.01,0.23,0.05,0.32c0.01,0.02-0.01,0.06-0.01,0.1
		c-0.02,0.07-0.06,0.08-0.15,0.04c-0.06-0.03-0.13-0.05-0.2-0.06c-0.1-0.01-0.13-0.04-0.1-0.11c0.01-0.03,0.02-0.07,0.04-0.09
		c0.08-0.05,0.17-0.1,0.26-0.14c-0.01-0.01-0.03-0.04-0.03-0.1c0-0.03,0.01-0.07,0.03-0.1c0.04-0.05,0.09-0.09,0.15-0.13
		c0.06-0.04,0.14-0.05,0.19,0.01C250.62,50.59,250.6,50.69,250.56,50.72z M236.66,21.88c-0.01-0.12,0.2-0.24,0.32-0.18
		c0.02,0.01,0.03,0.04,0.04,0.06c0.01,0.12-0.2,0.24-0.32,0.18C236.68,21.93,236.66,21.9,236.66,21.88z M235.98,22.99
		c0-0.03,0.01-0.08,0.03-0.1c0.06-0.04,0.12-0.08,0.19-0.11c0.14-0.06,0.25-0.14,0.26-0.3c0.01-0.14,0.13-0.16,0.23-0.2
		c0.07-0.03,0.2,0.06,0.23,0.18c0.02,0.06,0.02,0.17-0.02,0.19c-0.12,0.09-0.25,0.14-0.38,0.21c-0.13,0.07-0.25,0.15-0.39,0.2
		C236.06,23.09,235.99,23.05,235.98,22.99z M252.54,48.14c-0.24,0.34-0.25,0.34-0.11,0.6c0.06,0.11,0.04,0.23-0.04,0.28
		c-0.19,0.1-0.38,0.22-0.58,0.31c-0.16,0.07-0.16,0.22-0.24,0.33c-0.1,0.14-0.27,0.22-0.28,0.42c-0.09,0.06-0.17,0.12-0.24,0.17
		c-0.09,0.03-0.16,0.05-0.23,0.06c-0.11,0.03-0.1,0.02-0.02-0.25c0.04-0.15,0.09-0.27,0.25-0.32c0.02-0.01,0.03-0.06,0.05-0.09
		c0.02-0.07,0.05-0.14,0.07-0.21c0.05-0.17,0.08-0.35,0.29-0.41c0.04-0.18,0.1-0.34,0.29-0.41c-0.03-0.29,0.36-0.35,0.37-0.62
		c0-0.05,0.09-0.11,0.15-0.13c0.06-0.02,0.14-0.02,0.2,0.01C252.53,47.89,252.58,48.09,252.54,48.14z M248.08,18.36
		c-0.01,0.03-0.02,0.1-0.03,0.09c-0.09,0-0.14-0.04-0.13-0.09c0-0.03,0.02-0.1,0.03-0.1C248.04,18.27,248.08,18.31,248.08,18.36z
		 M248.57,17.85c0.01,0.12-0.2,0.24-0.32,0.18c-0.02-0.01-0.04-0.04-0.04-0.06c-0.01-0.12,0.2-0.24,0.32-0.18
		C248.55,17.8,248.56,17.83,248.57,17.85z M257.98,8.69c-0.15,0.1-0.31,0.18-0.48,0.26c-0.08,0.04-0.1,0.08-0.13,0.15
		c-0.09,0.22-0.09,0.22-0.26,0.31c-0.17,0.09-0.17,0.1-0.4,0.04c-0.08-0.02-0.13,0-0.2,0.03c-0.16,0.07-0.27,0.02-0.32-0.15
		c-0.01-0.05,0.02-0.12,0.04-0.18c0.03,0.01,0.07,0.02,0.1,0.03c0.1,0.03,0.19,0.05,0.3-0.01c0.41-0.23,0.83-0.45,1.25-0.67
		c0.02-0.01,0.07,0.01,0.1,0.03C258.03,8.56,258.05,8.64,257.98,8.69z M263.79,14.15c0,0.1-0.04,0.21-0.07,0.31
		c-0.04,0.14-0.07,0.28-0.13,0.41c-0.06,0.15-0.05,0.27,0.04,0.4c-0.04,0.14-0.07,0.28-0.13,0.41c-0.02,0.05-0.1,0.1-0.17,0.12
		c-0.06,0.01-0.15,0-0.19-0.04c-0.05-0.04-0.1-0.13-0.09-0.18c0.12-0.42,0.25-0.83,0.38-1.24c0.03-0.1,0.07-0.21,0.1-0.31
		c0.02-0.08,0.07-0.11,0.15-0.04C263.74,14.02,263.79,14.09,263.79,14.15z M264.01,11.46c-0.03,0.1-0.05,0.2-0.07,0.31
		c-0.28-0.18-0.39-0.38-0.33-0.6c0.03-0.1,0.05-0.2,0.07-0.31C263.96,11.04,264.07,11.24,264.01,11.46z M263.41,8.99
		c-0.03,0-0.1-0.02-0.1-0.03c0-0.09,0.04-0.14,0.09-0.13c0.03,0,0.07,0.02,0.1,0.03C263.5,8.95,263.47,9,263.41,8.99z"/>
</g>
</svg>
